<svg xmlns="http://www.w3.org/2000/svg" viewBox="0 0 32 32" width="32" height="32">
  <!-- The wordmark, reduced to its initial: Source Serif at ink on field. The
       tile inverts with the UI for the same reason the site does. -->
  <style>
    .tile { fill: #0a0c12 }
    .mark { fill: #eef0f5 }
    @media (prefers-color-scheme: dark) {
      .tile { fill: #edeff5 }
      .mark { fill: #06070b }
    }
  </style>
  <rect class="tile" width="32" height="32" rx="7"/>
  <path class="mark" transform="translate(7.81 22.69) scale(0.026715 -0.026715)" d="M167.9 -14.9Q107.5 -14.9 70.4 20.3Q33.3 55.4 33.3 115.1Q33.3 154.7 51.4 185.3Q69.5 215.8 113.1 240.4Q156.7 265.0 233.1 283.7Q257.8 290.1 282.9 295.9Q308.0 301.7 332.6 308.0Q357.3 314.3 381.9 320.6V276.1Q354.4 267.7 324.8 259.2Q295.2 250.7 267.7 242.1Q243.0 235.2 227.1 221.9Q211.2 208.5 204.1 190.6Q197.1 172.6 197.1 151.8Q197.1 119.9 215.8 102.8Q234.5 85.7 265.7 85.7Q281.3 85.7 295.3 89.6Q309.4 93.5 325.1 101.7Q340.8 110.0 359.0 121.6L364.3 70.6H317.4Q299.9 48.0 280.7 28.2Q261.5 8.4 235.0 -3.2Q208.5 -14.9 167.9 -14.9ZM451.7 -15.3Q395.9 -15.3 365.5 11.4Q335.2 38.2 325.5 85.5L320.1 86.6V353.2Q320.1 391.5 311.6 414.2Q303.2 437.0 284.8 446.7Q266.5 456.4 236.4 456.4Q214.0 456.4 192.7 452.8Q171.4 449.3 147.3 440.8L206.1 490.2L204.6 416.5Q203.8 360.0 180.0 336.2Q156.2 312.3 125.5 312.3Q94.7 312.3 75.8 326.5Q56.9 340.8 49.6 369.7Q55.8 438.5 118.5 477.2Q181.1 516.0 289.8 516.0Q361.4 516.0 407.9 496.0Q454.5 476.0 476.7 434.6Q498.9 393.3 498.9 327.6V109.0Q498.9 95.9 505.2 88.4Q511.5 80.9 523.8 80.9Q533.4 80.9 541.6 83.7Q549.8 86.5 559.6 93.3L579.8 54.9Q561.4 21.4 529.2 3.1Q497.1 -15.3 451.7 -15.3Z"/>
</svg>
